<mxfile host="app.diagrams.net" agent="Mozilla/5.0 (Windows NT 10.0; Win64; x64) AppleWebKit/537.36 (KHTML, like Gecko) Chrome/127.0.0.0 Safari/537.36" version="24.7.6">
  <diagram name="Page-1" id="g-VMl2kAD7bW_ptmqm9F">
    <mxGraphModel dx="1644" dy="458" grid="1" gridSize="10" guides="1" tooltips="1" connect="1" arrows="1" fold="1" page="1" pageScale="1" pageWidth="850" pageHeight="1100" math="0" shadow="0">
      <root>
        <mxCell id="0" />
        <mxCell id="1" parent="0" />
        <mxCell id="fCYjmJp2Jo-kTbjJ5ymH-38" value="" style="ellipse;whiteSpace=wrap;html=1;fillStyle=dashed;fillColor=none;strokeColor=#787878;" parent="1" vertex="1">
          <mxGeometry x="120" y="190" width="200" height="280" as="geometry" />
        </mxCell>
        <mxCell id="fCYjmJp2Jo-kTbjJ5ymH-39" value="" style="ellipse;whiteSpace=wrap;html=1;fillStyle=dashed;fillColor=none;strokeColor=#787878;rotation=-65;" parent="1" vertex="1">
          <mxGeometry x="270" y="580" width="210" height="460" as="geometry" />
        </mxCell>
        <mxCell id="fCYjmJp2Jo-kTbjJ5ymH-1" value="Salinity&lt;div&gt;Mean&lt;/div&gt;" style="rounded=0;whiteSpace=wrap;html=1;fillColor=#fff2cc;strokeColor=#d6b656;" parent="1" vertex="1">
          <mxGeometry x="160" y="232" width="120" height="60" as="geometry" />
        </mxCell>
        <mxCell id="fCYjmJp2Jo-kTbjJ5ymH-2" value="Community&amp;nbsp;&lt;div&gt;Growth (%/day)&lt;/div&gt;" style="whiteSpace=wrap;html=1;rounded=0;fillColor=#fff2cc;strokeColor=#d6b656;" parent="1" vertex="1">
          <mxGeometry x="480" y="292" width="120" height="60" as="geometry" />
        </mxCell>
        <mxCell id="fCYjmJp2Jo-kTbjJ5ymH-3" value="Species Richness&lt;div&gt;Day 30&lt;/div&gt;" style="whiteSpace=wrap;html=1;rounded=0;fillColor=#dae8fc;strokeColor=#6c8ebf;" parent="1" vertex="1">
          <mxGeometry x="510" y="160" width="120" height="60" as="geometry" />
        </mxCell>
        <mxCell id="fCYjmJp2Jo-kTbjJ5ymH-4" value="" style="endArrow=classic;html=1;rounded=0;exitX=1;exitY=0.75;exitDx=0;exitDy=0;entryX=0;entryY=0.25;entryDx=0;entryDy=0;" parent="1" source="fCYjmJp2Jo-kTbjJ5ymH-1" target="fCYjmJp2Jo-kTbjJ5ymH-2" edge="1">
          <mxGeometry width="50" height="50" relative="1" as="geometry">
            <mxPoint x="250" y="292" as="sourcePoint" />
            <mxPoint x="370" y="320" as="targetPoint" />
          </mxGeometry>
        </mxCell>
        <mxCell id="fCYjmJp2Jo-kTbjJ5ymH-5" value="Temperature&lt;div&gt;Mean&lt;/div&gt;" style="rounded=0;whiteSpace=wrap;html=1;fillColor=#fff2cc;strokeColor=#d6b656;" parent="1" vertex="1">
          <mxGeometry x="160" y="372" width="120" height="60" as="geometry" />
        </mxCell>
        <mxCell id="fCYjmJp2Jo-kTbjJ5ymH-6" value="Rugosity&lt;div&gt;Day 90&lt;/div&gt;" style="whiteSpace=wrap;html=1;rounded=0;fillColor=#f8cecc;strokeColor=#b85450;" parent="1" vertex="1">
          <mxGeometry x="690" y="352" width="120" height="60" as="geometry" />
        </mxCell>
        <mxCell id="fCYjmJp2Jo-kTbjJ5ymH-7" value="" style="endArrow=classic;html=1;rounded=0;entryX=0;entryY=0;entryDx=0;entryDy=0;exitX=1;exitY=0.5;exitDx=0;exitDy=0;strokeWidth=1;" parent="1" source="fCYjmJp2Jo-kTbjJ5ymH-3" target="fCYjmJp2Jo-kTbjJ5ymH-6" edge="1">
          <mxGeometry width="50" height="50" relative="1" as="geometry">
            <mxPoint x="560" y="187" as="sourcePoint" />
            <mxPoint x="640" y="267" as="targetPoint" />
          </mxGeometry>
        </mxCell>
        <mxCell id="fCYjmJp2Jo-kTbjJ5ymH-8" value="" style="endArrow=classic;html=1;rounded=0;entryX=0;entryY=1;entryDx=0;entryDy=0;exitX=1;exitY=0.25;exitDx=0;exitDy=0;" parent="1" source="fCYjmJp2Jo-kTbjJ5ymH-5" target="fCYjmJp2Jo-kTbjJ5ymH-3" edge="1">
          <mxGeometry width="50" height="50" relative="1" as="geometry">
            <mxPoint x="260" y="302" as="sourcePoint" />
            <mxPoint x="340" y="382" as="targetPoint" />
          </mxGeometry>
        </mxCell>
        <mxCell id="fCYjmJp2Jo-kTbjJ5ymH-9" value="" style="endArrow=classic;html=1;rounded=0;exitX=0.25;exitY=1;exitDx=0;exitDy=0;entryX=0.5;entryY=0;entryDx=0;entryDy=0;" parent="1" source="fCYjmJp2Jo-kTbjJ5ymH-3" target="fCYjmJp2Jo-kTbjJ5ymH-2" edge="1">
          <mxGeometry width="50" height="50" relative="1" as="geometry">
            <mxPoint x="460" y="382" as="sourcePoint" />
            <mxPoint x="510" y="342" as="targetPoint" />
          </mxGeometry>
        </mxCell>
        <mxCell id="fCYjmJp2Jo-kTbjJ5ymH-10" value="Panel model - Include paths between variables at different time steps" style="text;html=1;align=left;verticalAlign=middle;resizable=0;points=[];autosize=1;strokeColor=none;fillColor=none;fontStyle=1;fontSize=14;" parent="1" vertex="1">
          <mxGeometry x="-60" y="30" width="450" height="30" as="geometry" />
        </mxCell>
        <mxCell id="fCYjmJp2Jo-kTbjJ5ymH-11" value="" style="endArrow=classic;html=1;rounded=0;exitX=1;exitY=0.25;exitDx=0;exitDy=0;entryX=0;entryY=0.5;entryDx=0;entryDy=0;" parent="1" source="fCYjmJp2Jo-kTbjJ5ymH-1" target="fCYjmJp2Jo-kTbjJ5ymH-3" edge="1">
          <mxGeometry width="50" height="50" relative="1" as="geometry">
            <mxPoint x="270" y="282" as="sourcePoint" />
            <mxPoint x="270" y="302" as="targetPoint" />
          </mxGeometry>
        </mxCell>
        <mxCell id="fCYjmJp2Jo-kTbjJ5ymH-12" value="" style="endArrow=classic;html=1;rounded=0;exitX=1;exitY=0.5;exitDx=0;exitDy=0;entryX=0;entryY=0.75;entryDx=0;entryDy=0;" parent="1" source="fCYjmJp2Jo-kTbjJ5ymH-5" target="fCYjmJp2Jo-kTbjJ5ymH-2" edge="1">
          <mxGeometry width="50" height="50" relative="1" as="geometry">
            <mxPoint x="260" y="442" as="sourcePoint" />
            <mxPoint x="280" y="452" as="targetPoint" />
          </mxGeometry>
        </mxCell>
        <mxCell id="fCYjmJp2Jo-kTbjJ5ymH-13" value="" style="endArrow=classic;html=1;rounded=0;exitX=1;exitY=1;exitDx=0;exitDy=0;entryX=0;entryY=0.5;entryDx=0;entryDy=0;" parent="1" source="fCYjmJp2Jo-kTbjJ5ymH-2" target="fCYjmJp2Jo-kTbjJ5ymH-6" edge="1">
          <mxGeometry width="50" height="50" relative="1" as="geometry">
            <mxPoint x="450" y="372" as="sourcePoint" />
            <mxPoint x="530" y="347" as="targetPoint" />
          </mxGeometry>
        </mxCell>
        <mxCell id="fCYjmJp2Jo-kTbjJ5ymH-14" value="Arborescent Bryozoans&lt;div&gt;Day 30&lt;/div&gt;" style="rounded=0;whiteSpace=wrap;html=1;fillColor=#dae8fc;strokeColor=#6c8ebf;" parent="1" vertex="1">
          <mxGeometry x="440" y="70" width="120" height="60" as="geometry" />
        </mxCell>
        <mxCell id="fCYjmJp2Jo-kTbjJ5ymH-15" value="" style="endArrow=classic;html=1;rounded=0;entryX=0.25;entryY=0;entryDx=0;entryDy=0;exitX=0.25;exitY=1;exitDx=0;exitDy=0;" parent="1" source="fCYjmJp2Jo-kTbjJ5ymH-14" target="fCYjmJp2Jo-kTbjJ5ymH-21" edge="1">
          <mxGeometry width="50" height="50" relative="1" as="geometry">
            <mxPoint x="440" y="200" as="sourcePoint" />
            <mxPoint x="459" y="510" as="targetPoint" />
          </mxGeometry>
        </mxCell>
        <mxCell id="fCYjmJp2Jo-kTbjJ5ymH-16" value="" style="endArrow=classic;html=1;rounded=0;entryX=0;entryY=0.5;entryDx=0;entryDy=0;exitX=1;exitY=0;exitDx=0;exitDy=0;" parent="1" source="fCYjmJp2Jo-kTbjJ5ymH-1" target="fCYjmJp2Jo-kTbjJ5ymH-14" edge="1">
          <mxGeometry width="50" height="50" relative="1" as="geometry">
            <mxPoint x="240" y="262" as="sourcePoint" />
            <mxPoint x="340" y="317" as="targetPoint" />
          </mxGeometry>
        </mxCell>
        <mxCell id="fCYjmJp2Jo-kTbjJ5ymH-17" value="" style="endArrow=classic;html=1;rounded=0;exitX=1;exitY=0;exitDx=0;exitDy=0;" parent="1" source="fCYjmJp2Jo-kTbjJ5ymH-5" edge="1">
          <mxGeometry width="50" height="50" relative="1" as="geometry">
            <mxPoint x="240" y="302" as="sourcePoint" />
            <mxPoint x="440" y="130" as="targetPoint" />
          </mxGeometry>
        </mxCell>
        <mxCell id="fCYjmJp2Jo-kTbjJ5ymH-18" value="" style="curved=1;endArrow=classic;html=1;rounded=0;exitX=0;exitY=0.5;exitDx=0;exitDy=0;startArrow=classic;startFill=1;" parent="1" edge="1">
          <mxGeometry width="50" height="50" relative="1" as="geometry">
            <mxPoint x="160" y="400" as="sourcePoint" />
            <mxPoint x="160" y="264" as="targetPoint" />
            <Array as="points">
              <mxPoint x="110" y="376" />
              <mxPoint x="90" y="336" />
              <mxPoint x="110" y="264" />
            </Array>
          </mxGeometry>
        </mxCell>
        <mxCell id="fCYjmJp2Jo-kTbjJ5ymH-19" value="Rugosity&lt;div&gt;Day 30&lt;/div&gt;" style="whiteSpace=wrap;html=1;rounded=0;fillColor=#dae8fc;strokeColor=#6c8ebf;" parent="1" vertex="1">
          <mxGeometry x="690" y="232" width="120" height="60" as="geometry" />
        </mxCell>
        <mxCell id="fCYjmJp2Jo-kTbjJ5ymH-21" value="Arborescent Bryozoans&lt;div&gt;Day 90&lt;/div&gt;" style="rounded=0;whiteSpace=wrap;html=1;fillColor=#f8cecc;strokeColor=#b85450;" parent="1" vertex="1">
          <mxGeometry x="440" y="520" width="120" height="60" as="geometry" />
        </mxCell>
        <mxCell id="fCYjmJp2Jo-kTbjJ5ymH-22" value="Species Richness&lt;div&gt;Day 90&lt;/div&gt;" style="whiteSpace=wrap;html=1;rounded=0;fillColor=#f8cecc;strokeColor=#b85450;" parent="1" vertex="1">
          <mxGeometry x="510" y="420" width="120" height="60" as="geometry" />
        </mxCell>
        <mxCell id="fCYjmJp2Jo-kTbjJ5ymH-23" value="" style="endArrow=classic;html=1;rounded=0;entryX=0.5;entryY=0;entryDx=0;entryDy=0;exitX=0.5;exitY=1;exitDx=0;exitDy=0;" parent="1" source="fCYjmJp2Jo-kTbjJ5ymH-19" target="fCYjmJp2Jo-kTbjJ5ymH-6" edge="1">
          <mxGeometry width="50" height="50" relative="1" as="geometry">
            <mxPoint x="570" y="127" as="sourcePoint" />
            <mxPoint x="760" y="380" as="targetPoint" />
          </mxGeometry>
        </mxCell>
        <mxCell id="fCYjmJp2Jo-kTbjJ5ymH-24" value="" style="endArrow=classic;html=1;rounded=0;exitX=1;exitY=0.25;exitDx=0;exitDy=0;entryX=0;entryY=1;entryDx=0;entryDy=0;" parent="1" source="fCYjmJp2Jo-kTbjJ5ymH-22" target="fCYjmJp2Jo-kTbjJ5ymH-6" edge="1">
          <mxGeometry width="50" height="50" relative="1" as="geometry">
            <mxPoint x="500" y="370" as="sourcePoint" />
            <mxPoint x="690" y="410" as="targetPoint" />
          </mxGeometry>
        </mxCell>
        <mxCell id="fCYjmJp2Jo-kTbjJ5ymH-25" value="" style="endArrow=classic;html=1;rounded=0;exitX=1;exitY=0.5;exitDx=0;exitDy=0;entryX=0.5;entryY=1;entryDx=0;entryDy=0;" parent="1" source="fCYjmJp2Jo-kTbjJ5ymH-21" target="fCYjmJp2Jo-kTbjJ5ymH-6" edge="1">
          <mxGeometry width="50" height="50" relative="1" as="geometry">
            <mxPoint x="570" y="460" as="sourcePoint" />
            <mxPoint x="690" y="430" as="targetPoint" />
          </mxGeometry>
        </mxCell>
        <mxCell id="fCYjmJp2Jo-kTbjJ5ymH-26" value="" style="endArrow=classic;html=1;rounded=0;entryX=0.864;entryY=0.017;entryDx=0;entryDy=0;exitX=0.864;exitY=0.964;exitDx=0;exitDy=0;strokeWidth=1;exitPerimeter=0;entryPerimeter=0;" parent="1" source="fCYjmJp2Jo-kTbjJ5ymH-3" target="fCYjmJp2Jo-kTbjJ5ymH-22" edge="1">
          <mxGeometry width="50" height="50" relative="1" as="geometry">
            <mxPoint x="580" y="220" as="sourcePoint" />
            <mxPoint x="580" y="400" as="targetPoint" />
          </mxGeometry>
        </mxCell>
        <mxCell id="fCYjmJp2Jo-kTbjJ5ymH-27" value="" style="endArrow=classic;html=1;rounded=0;exitX=1;exitY=0.5;exitDx=0;exitDy=0;strokeWidth=1;entryX=0.5;entryY=0;entryDx=0;entryDy=0;" parent="1" source="fCYjmJp2Jo-kTbjJ5ymH-14" target="fCYjmJp2Jo-kTbjJ5ymH-19" edge="1">
          <mxGeometry width="50" height="50" relative="1" as="geometry">
            <mxPoint x="640" y="242" as="sourcePoint" />
            <mxPoint x="700" y="380" as="targetPoint" />
          </mxGeometry>
        </mxCell>
        <mxCell id="fCYjmJp2Jo-kTbjJ5ymH-29" value="" style="endArrow=classic;html=1;rounded=0;entryX=0;entryY=0;entryDx=0;entryDy=0;exitX=1;exitY=0.5;exitDx=0;exitDy=0;strokeWidth=1;" parent="1" source="fCYjmJp2Jo-kTbjJ5ymH-3" target="fCYjmJp2Jo-kTbjJ5ymH-19" edge="1">
          <mxGeometry width="50" height="50" relative="1" as="geometry">
            <mxPoint x="640" y="242" as="sourcePoint" />
            <mxPoint x="700" y="380" as="targetPoint" />
          </mxGeometry>
        </mxCell>
        <mxCell id="fCYjmJp2Jo-kTbjJ5ymH-32" value="" style="endArrow=classic;html=1;rounded=0;entryX=0;entryY=0.75;entryDx=0;entryDy=0;exitX=1;exitY=0.75;exitDx=0;exitDy=0;" parent="1" source="fCYjmJp2Jo-kTbjJ5ymH-5" target="fCYjmJp2Jo-kTbjJ5ymH-22" edge="1">
          <mxGeometry width="50" height="50" relative="1" as="geometry">
            <mxPoint x="240" y="397" as="sourcePoint" />
            <mxPoint x="520" y="242" as="targetPoint" />
          </mxGeometry>
        </mxCell>
        <mxCell id="fCYjmJp2Jo-kTbjJ5ymH-34" value="" style="endArrow=classic;html=1;rounded=0;entryX=0;entryY=0.5;entryDx=0;entryDy=0;exitX=1;exitY=1;exitDx=0;exitDy=0;" parent="1" source="fCYjmJp2Jo-kTbjJ5ymH-5" target="fCYjmJp2Jo-kTbjJ5ymH-21" edge="1">
          <mxGeometry width="50" height="50" relative="1" as="geometry">
            <mxPoint x="240" y="382" as="sourcePoint" />
            <mxPoint x="450" y="142" as="targetPoint" />
          </mxGeometry>
        </mxCell>
        <mxCell id="fCYjmJp2Jo-kTbjJ5ymH-35" value="" style="endArrow=classic;html=1;rounded=0;exitX=1;exitY=1;exitDx=0;exitDy=0;entryX=0;entryY=0;entryDx=0;entryDy=0;" parent="1" source="fCYjmJp2Jo-kTbjJ5ymH-1" target="fCYjmJp2Jo-kTbjJ5ymH-21" edge="1">
          <mxGeometry width="50" height="50" relative="1" as="geometry">
            <mxPoint x="240" y="242" as="sourcePoint" />
            <mxPoint x="440" y="520" as="targetPoint" />
          </mxGeometry>
        </mxCell>
        <mxCell id="fCYjmJp2Jo-kTbjJ5ymH-36" value="" style="endArrow=classic;html=1;rounded=0;exitX=0.5;exitY=1;exitDx=0;exitDy=0;entryX=0.25;entryY=0;entryDx=0;entryDy=0;" parent="1" source="fCYjmJp2Jo-kTbjJ5ymH-2" target="fCYjmJp2Jo-kTbjJ5ymH-22" edge="1">
          <mxGeometry width="50" height="50" relative="1" as="geometry">
            <mxPoint x="470" y="310" as="sourcePoint" />
            <mxPoint x="580" y="220" as="targetPoint" />
          </mxGeometry>
        </mxCell>
        <mxCell id="fCYjmJp2Jo-kTbjJ5ymH-43" value="" style="ellipse;whiteSpace=wrap;html=1;fillStyle=dashed;fillColor=none;strokeColor=#787878;rotation=-120;" parent="1" vertex="1">
          <mxGeometry x="270" y="580" width="210" height="460" as="geometry" />
        </mxCell>
        <mxCell id="fCYjmJp2Jo-kTbjJ5ymH-44" value="" style="endArrow=classic;html=1;rounded=0;entryX=1;entryY=0;entryDx=0;entryDy=0;exitX=0;exitY=1;exitDx=0;exitDy=0;strokeWidth=1;" parent="1" source="fCYjmJp2Jo-kTbjJ5ymH-19" target="fCYjmJp2Jo-kTbjJ5ymH-22" edge="1">
          <mxGeometry width="50" height="50" relative="1" as="geometry">
            <mxPoint x="640" y="200" as="sourcePoint" />
            <mxPoint x="700" y="380" as="targetPoint" />
          </mxGeometry>
        </mxCell>
        <mxCell id="fCYjmJp2Jo-kTbjJ5ymH-46" value="" style="endArrow=classic;html=1;rounded=0;exitX=1;exitY=0;exitDx=0;exitDy=0;entryX=0;entryY=0.5;entryDx=0;entryDy=0;" parent="1" source="fCYjmJp2Jo-kTbjJ5ymH-2" target="fCYjmJp2Jo-kTbjJ5ymH-19" edge="1">
          <mxGeometry width="50" height="50" relative="1" as="geometry">
            <mxPoint x="600" y="292" as="sourcePoint" />
            <mxPoint x="690" y="322" as="targetPoint" />
          </mxGeometry>
        </mxCell>
      </root>
    </mxGraphModel>
  </diagram>
</mxfile>
